<svg xmlns="http://www.w3.org/2000/svg" width="200" height="290" viewBox="0 0 200 290">
    <title>Senegal Logomark</title>
    <style>.green{fill:#00853F}.yellow{fill:#FDEF42}.red{fill:#E31B23}</style>
    <path role="TL" class="green" d="M1 21l38 22 38-22-38-21z"/>
    <path role="TR" class="red" d="M124 45l37 21 38-21-38-22z"/>
    <path role="OL" class="green" d="M0 164l78 45v-43l-41-24v-95l-37-22z"/>
    <path role="OR" class="red" d="M163 70v44l37-22-.1-43z"/>
    <path role="OB" class="yellow" d="M82 166v43l77-45v-43z"/>
    <path role="IL" class="yellow" d="M41 47v90l37-22v-90z"/>
    <path role="IR" class="green" d="M122 92l37 22v-44l-37-21z"/>
    <path role="IB" class="red" d="M42.5 140.5l37.5 21.5 77-44.5-37-22.5z"/>
    <path fill-rule="evenodd" clip-rule="evenodd" d="M7.9 217v40.2h14.8v6.9h-22.7v-47.1h7.9zm42.4 20v-4.2h7.4v31.4h-7.4v-4.2c-1 1.6-2.4 2.8-4.3 3.7-1.8.9-3.7 1.3-5.6 1.3-2.4 0-4.6-.4-6.6-1.3-2-.8-3.7-2.1-5.2-3.6-1.4-1.5-2.6-3.3-3.3-5.3-.8-2-1.2-4.2-1.2-6.3 0-2.2.4-4.3 1.2-6.3.8-2 1.9-3.8 3.3-5.3 1.5-1.5 3.2-2.8 5.2-3.6 2-.9 4.2-1.3 6.6-1.3 1.9 0 3.7.4 5.6 1.3 1.9.9 3.3 2.1 4.3 3.7zm-.6 15.3c.5-1.2.7-2.5.7-3.8 0-1.3-.2-2.6-.7-3.8-.4-1.2-1.1-2.2-1.9-3.2-.8-.9-1.8-1.6-3-2.2-1.2-.5-2.4-.8-3.9-.8-1.4 0-2.7.3-3.8.8-1.1.5-2.1 1.3-2.9 2.2-.8.9-1.5 2-1.9 3.2-.4 1.2-.7 2.5-.7 3.8 0 1.3.2 2.6.6 3.8.4 1.2 1.1 2.3 1.9 3.2.8.9 1.8 1.6 2.9 2.2 1.1.5 2.4.8 3.8.8s2.7-.3 3.9-.8c1.1-.5 2.1-1.2 3-2.2.9-.9 1.5-2 2-3.2zm14 11.9v-31.4h20.2v7.2h-12.8v24.2h-7.4zm47.2-27.2v-4.2h7.4v31.4h-7.4v-4.2c-1 1.6-2.4 2.8-4.3 3.7-1.8.9-3.7 1.3-5.6 1.3-2.4 0-4.6-.4-6.6-1.3-2-.8-3.7-2.1-5.2-3.6-1.4-1.5-2.6-3.3-3.3-5.3-.8-2-1.2-4.2-1.2-6.3 0-2.2.4-4.3 1.2-6.3.8-2 1.9-3.8 3.3-5.3 1.5-1.5 3.2-2.8 5.2-3.6 2-.9 4.2-1.3 6.6-1.3 1.9 0 3.7.4 5.6 1.3 1.8.9 3.3 2.1 4.3 3.7zm-.7 15.3c.5-1.2.7-2.5.7-3.8 0-1.3-.2-2.6-.7-3.8-.4-1.2-1.1-2.2-1.9-3.2-.8-.9-1.8-1.6-3-2.2-1.2-.5-2.4-.8-3.9-.8-1.4 0-2.7.3-3.8.8-1.1.5-2.1 1.3-2.9 2.2-.8.9-1.5 2-1.9 3.2-.4 1.2-.7 2.5-.6 3.8 0 1.3.2 2.6.6 3.8.4 1.2 1.1 2.3 1.9 3.2.8.9 1.8 1.6 2.9 2.2 1.1.5 2.4.8 3.8.8s2.7-.3 3.9-.8c1.1-.5 2.1-1.2 3-2.2.8-.9 1.5-2 1.9-3.2zm38-19.5h7.5l-12.2 31.4h-9.4l-12.2-31.4h7.5l9.4 24.1 9.4-24.1zm23.8-.8c10.1 0 17.1 8.9 15.8 19.2h-24.8c0 2.7 2.8 7.9 9.4 7.9 5.7 0 9.5-4.9 9.5-4.9l5 3.8c-4.5 4.7-8.2 6.9-13.9 6.9-10.3 0-17.3-6.4-17.3-16.5-.1-9 7.1-16.4 16.3-16.4zm-9 13.8h17.8c-.1-.6-1-7.9-9-7.9-7.9-.1-8.7 7.2-8.8 7.9zm29.6 18.4v-47.2h7.4v47.2h-7.4z"/>
    <g transform="translate(0, 264)">
        <path d="m 68.449951,17.181641 q 0,0.863281 -0.437988,1.536132 -0.437988,0.666504 -1.263184,1.041016 -0.825195,0.368164 -1.936035,0.368164 -0.926758,0 -1.555176,-0.126953 -0.628418,-0.133301 -1.307617,-0.457031 v -2.234375 q 0.717285,0.368164 1.491699,0.577636 0.774414,0.203125 1.421875,0.203125 0.558594,0 0.818848,-0.190429 0.260254,-0.196778 0.260254,-0.501465 0,-0.19043 -0.10791,-0.330078 -0.101563,-0.145996 -0.336426,-0.291992 -0.228516,-0.145996 -1.231445,-0.59668 -0.907715,-0.412598 -1.364746,-0.799805 -0.450684,-0.387207 -0.672852,-0.888672 -0.21582,-0.501464 -0.21582,-1.187011 0,-1.282227 0.933105,-1.999512 0.933106,-0.717285 2.564453,-0.717285 1.440918,0 2.938965,0.666504 l -0.768066,1.936035 q -1.30127,-0.59668 -2.247071,-0.59668 -0.488769,0 -0.710937,0.171387 -0.222168,0.171387 -0.222168,0.425293 0,0.272949 0.279297,0.488769 0.285644,0.215821 1.536133,0.78711 1.199707,0.539551 1.663086,1.161621 0.469726,0.615722 0.469726,1.555176 z"/>
        <path d="m 78.394287,20 h -5.509766 v -9.280273 h 5.509766 v 2.012207 h -3.002441 v 1.459961 h 2.780273 v 2.012207 h -2.780273 v 1.751953 h 3.002441 z"/>
        <path d="M 91.855225,20 H 88.567139 L 85.17749,13.461914 h -0.05713 q 0.120606,1.542481 0.120606,2.354981 V 20 h -2.22168 v -9.280273 h 3.275391 l 3.376953,6.449218 h 0.03809 q -0.08887,-1.402832 -0.08887,-2.253418 v -4.1958 h 2.234375 z"/>
        <path d="m 102.37085,20 h -5.509766 v -9.280273 h 5.509766 v 2.012207 h -3.002442 v 1.459961 h 2.780272 v 2.012207 h -2.780272 v 1.751953 h 3.002442 z"/>
        <path d="m 110.72192,14.566406 h 4.00537 v 5.001953 q -1.63134,0.558594 -3.58642,0.558594 -2.14551,0 -3.31983,-1.244141 -1.16796,-1.24414 -1.16796,-3.548339 0,-2.247071 1.28222,-3.497559 1.28223,-1.250488 3.59278,-1.250488 0.87597,0 1.65039,0.165039 0.78076,0.165039 1.3584,0.418945 l -0.79346,1.967774 q -1.00293,-0.495118 -2.20264,-0.495118 -1.09814,0 -1.70117,0.717286 -0.59668,0.710937 -0.59668,2.037597 0,1.30127 0.53955,1.986817 0.5459,0.679199 1.56787,0.679199 0.5586,0 1.02832,-0.10791 v -1.453614 h -1.65674 z"/>
        <path d="m 125.31274,20 -0.45703,-1.739258 h -3.01513 L 121.37085,20 h -2.75488 l 3.02783,-9.318359 h 3.34521 L 128.05493,20 Z m -0.97753,-3.795898 -0.39991,-1.523438 q -0.13965,-0.507812 -0.34277,-1.313965 -0.19678,-0.806152 -0.26025,-1.155273 -0.0571,0.32373 -0.22852,1.066406 -0.16504,0.742676 -0.74268,2.92627 z"/>
        <path d="m 132.05786,20 v -9.280273 h 2.50733 v 7.255371 h 3.57373 V 20 Z"/>
    </g>
</svg>